<svg width="20" height="24" viewBox="0 0 20 24" fill="none" xmlns="http://www.w3.org/2000/svg">
<path d="M6.50107 5.66658C7.00742 5.66658 7.47823 5.79325 7.91352 6.04659C8.3488 6.29992 8.69303 6.64436 8.9462 7.07992C9.19938 7.51547 9.32597 7.98658 9.32597 8.49325V11.3333H6.50107C5.98583 11.3333 5.51058 11.2066 5.07529 10.9533C4.64001 10.6999 4.29578 10.3555 4.0426 9.91992C3.78943 9.48436 3.66284 9.01103 3.66284 8.49992C3.66284 7.98881 3.78943 7.51547 4.0426 7.07992C4.29578 6.64436 4.64001 6.29992 5.07529 6.04659C5.51058 5.79325 5.98139 5.66658 6.48774 5.66658H6.50107ZM7.99347 9.99992V8.49325C7.99347 8.22659 7.92684 7.9777 7.79359 7.74658C7.66034 7.51547 7.47823 7.33325 7.24727 7.19992C7.0163 7.06658 6.76535 6.99992 6.4944 6.99992C6.22346 6.99992 5.97251 7.06658 5.74154 7.19992C5.51058 7.33325 5.32847 7.51547 5.19522 7.74658C5.06197 7.9777 4.99534 8.22881 4.99534 8.49992C4.99534 8.77103 5.06197 9.02214 5.19522 9.25325C5.32847 9.48436 5.51058 9.66658 5.74154 9.79992C5.97251 9.93325 6.22124 9.99992 6.48774 9.99992H7.99347ZM6.50107 12.6666H9.32597V15.4933C9.32597 16.0088 9.19938 16.4844 8.9462 16.9199C8.69303 17.3555 8.3488 17.6999 7.91352 17.9533C7.47823 18.2066 7.0052 18.3333 6.4944 18.3333C5.98361 18.3333 5.51058 18.2066 5.07529 17.9533C4.64001 17.6999 4.29578 17.3555 4.0426 16.9199C3.78943 16.4844 3.66284 16.011 3.66284 15.4999C3.66284 14.9888 3.78943 14.5155 4.0426 14.0799C4.29578 13.6444 4.64001 13.2999 5.07529 13.0466C5.51058 12.7933 5.98139 12.6666 6.48774 12.6666H6.50107ZM6.50107 13.9999C6.22568 13.9999 5.97251 14.0666 5.74154 14.1999C5.51058 14.3333 5.32847 14.5155 5.19522 14.7466C5.06197 14.9777 4.99534 15.2288 4.99534 15.4999C4.99534 15.771 5.06197 16.0221 5.19522 16.2533C5.32847 16.4844 5.51058 16.6666 5.74154 16.7999C5.97251 16.9333 6.22346 16.9999 6.4944 16.9999C6.76535 16.9999 7.0163 16.9333 7.24727 16.7999C7.47823 16.6666 7.66034 16.4844 7.79359 16.2533C7.92684 16.0221 7.99347 15.7688 7.99347 15.4933V13.9999H6.50107ZM13.4967 5.66658C14.003 5.66658 14.4739 5.79325 14.9091 6.04659C15.3444 6.29992 15.6887 6.64436 15.9418 7.07992C16.195 7.51547 16.3216 7.98881 16.3216 8.49992C16.3216 9.01103 16.195 9.48436 15.9418 9.91992C15.6887 10.3555 15.3444 10.6999 14.9091 10.9533C14.4739 11.2066 13.9986 11.3333 13.4834 11.3333H10.6585V8.49325C10.6585 7.98658 10.7851 7.51547 11.0382 7.07992C11.2914 6.64436 11.6356 6.29992 12.0709 6.04659C12.5062 5.79325 12.9815 5.66658 13.4967 5.66658ZM13.4967 9.99992C13.7632 9.99992 14.0119 9.93325 14.2429 9.79992C14.4739 9.66658 14.656 9.48436 14.7892 9.25325C14.9225 9.02214 14.9891 8.77103 14.9891 8.49992C14.9891 8.22881 14.9225 7.9777 14.7892 7.74658C14.656 7.51547 14.4739 7.33325 14.2429 7.19992C14.0119 7.06658 13.761 6.99992 13.49 6.99992C13.2191 6.99992 12.9681 7.06658 12.7372 7.19992C12.5062 7.33325 12.3241 7.51547 12.1908 7.74658C12.0576 7.9777 11.991 8.22659 11.991 8.49325V9.99992H13.4967ZM10.6585 12.6666H13.4967C14.003 12.6666 14.4739 12.7933 14.9091 13.0466C15.3444 13.2999 15.6887 13.6444 15.9418 14.0799C16.195 14.5155 16.3216 14.9888 16.3216 15.4999C16.3216 16.011 16.195 16.4844 15.9418 16.9199C15.6887 17.3555 15.3444 17.6999 14.9091 17.9533C14.4739 18.2066 14.0008 18.3333 13.49 18.3333C12.9792 18.3333 12.5062 18.2066 12.0709 17.9533C11.6356 17.6999 11.2914 17.3555 11.0382 16.9199C10.7851 16.4844 10.6585 16.0088 10.6585 15.4933V12.6666ZM11.991 13.9999V15.4933C11.991 15.7688 12.0576 16.0221 12.1908 16.2533C12.3241 16.4844 12.5062 16.6666 12.7372 16.7999C12.9681 16.9333 13.2191 16.9999 13.49 16.9999C13.761 16.9999 14.0119 16.9333 14.2429 16.7999C14.4739 16.6666 14.656 16.4844 14.7892 16.2533C14.9225 16.0221 14.9891 15.771 14.9891 15.4999C14.9891 15.2288 14.9225 14.9777 14.7892 14.7466C14.656 14.5155 14.4739 14.3333 14.2429 14.1999C14.0119 14.0666 13.7632 13.9999 13.4967 13.9999H11.991Z" fill="#61728E"/>
</svg>
