<svg width="20" height="24" viewBox="0 0 20 24" fill="none" xmlns="http://www.w3.org/2000/svg">
<path d="M9.32596 16.6667V10H4.66221V16.6667H9.32596ZM9.32596 8.66667V6.66667C9.32596 6.48 9.39037 6.32222 9.51917 6.19333C9.64798 6.06444 9.80566 6 9.99221 6H15.9885C16.175 6 16.3327 6.06444 16.4615 6.19333C16.5903 6.32222 16.6547 6.48 16.6547 6.66667V17.3333C16.6547 17.52 16.5903 17.6778 16.4615 17.8067C16.3327 17.9356 16.175 18 15.9885 18H3.99596C3.80941 18 3.65173 17.9356 3.52292 17.8067C3.39412 17.6778 3.32971 17.52 3.32971 17.3333V9.33333C3.32971 9.14667 3.39412 8.98889 3.52292 8.86C3.65173 8.73111 3.80941 8.66667 3.99596 8.66667H9.32596ZM10.6585 7.33333V16.6667H15.3222V7.33333H10.6585ZM5.32846 14.6667H8.65971V16H5.32846V14.6667ZM11.3247 14.6667H14.656V16H11.3247V14.6667ZM11.3247 12.6667H14.656V14H11.3247V12.6667ZM11.3247 10.6667H14.656V12H11.3247V10.6667ZM5.32846 12.6667H8.65971V14H5.32846V12.6667Z" fill="#2563EB"/>
</svg>
