<svg width="20" height="24" viewBox="0 0 20 24" fill="none" xmlns="http://www.w3.org/2000/svg">
<path d="M4.51559 5.87992L9.99216 4.66658L15.4687 5.87992C15.6198 5.91547 15.7441 5.99547 15.8418 6.11992C15.9396 6.24436 15.9884 6.38214 15.9884 6.53325V13.1866C15.9884 13.8621 15.8307 14.4933 15.5154 15.0799C15.2 15.6666 14.7625 16.1466 14.2029 16.5199L9.99216 19.3333L5.78146 16.5199C5.22181 16.1466 4.78431 15.6666 4.46895 15.0799C4.15359 14.4933 3.99591 13.8621 3.99591 13.1866V6.53325C3.99591 6.38214 4.04477 6.24436 4.14249 6.11992C4.2402 5.99547 4.36457 5.91547 4.51559 5.87992ZM5.32841 7.06658V13.1866C5.32841 13.6399 5.43279 14.0621 5.64155 14.4533C5.85031 14.8444 6.14124 15.1644 6.51434 15.4133L9.99216 17.7333L13.47 15.4133C13.8431 15.1644 14.134 14.8444 14.3428 14.4533C14.5515 14.0621 14.6559 13.6399 14.6559 13.1866V7.06658L9.99216 6.02658L5.32841 7.06658Z" fill="#6B7280"/>
</svg>
