<svg width="20" height="24" viewBox="0 0 20 24" fill="none" xmlns="http://www.w3.org/2000/svg">
<path d="M9.9922 5.66658C10.8361 5.66658 11.6223 5.87992 12.3507 6.30659C13.0525 6.71547 13.6077 7.27103 14.0164 7.97325C14.4428 8.70214 14.656 9.48881 14.656 10.3333V10.5599C15.1712 10.7377 15.6309 11.0133 16.0351 11.3866C16.4393 11.7599 16.7546 12.2021 16.9812 12.7133C17.2077 13.2244 17.321 13.7644 17.321 14.3333C17.321 15.0533 17.1388 15.7244 16.7746 16.3466C16.4193 16.951 15.9396 17.431 15.3355 17.7866C14.7137 18.151 14.043 18.3333 13.3235 18.3333H6.66095C5.9414 18.3333 5.27071 18.151 4.64888 17.7866C4.04481 17.431 3.56511 16.951 3.20978 16.3466C2.84556 15.7244 2.66345 15.0533 2.66345 14.3333C2.66345 13.7644 2.77671 13.2244 3.00324 12.7133C3.22976 12.2021 3.54512 11.7599 3.94931 11.3866C4.35351 11.0133 4.81322 10.7377 5.32845 10.5599V10.3333C5.32845 9.48881 5.54165 8.70214 5.96805 7.97325C6.37669 7.27103 6.93189 6.71547 7.63368 6.30659C8.36211 5.87992 9.14829 5.66658 9.9922 5.66658ZM9.9922 6.99992C9.38814 6.99992 8.83071 7.14881 8.31991 7.44658C7.80912 7.74436 7.40493 8.14881 7.10734 8.65992C6.80975 9.17103 6.66095 9.72881 6.66095 10.3333L6.71425 11.4933L5.7815 11.8133C5.2485 11.9999 4.81766 12.3244 4.48898 12.7866C4.16029 13.2488 3.99595 13.7644 3.99595 14.3333C3.99595 14.8133 4.11588 15.2577 4.35573 15.6666C4.59558 16.0755 4.91982 16.3999 5.32845 16.6399C5.73709 16.8799 6.18125 16.9999 6.66095 16.9999H13.3235C13.8032 16.9999 14.2473 16.8799 14.656 16.6399C15.0646 16.3999 15.3888 16.0755 15.6287 15.6666C15.8685 15.2577 15.9885 14.8133 15.9885 14.3333C15.9885 13.8533 15.8685 13.4088 15.6287 12.9999C15.3888 12.591 15.0646 12.2666 14.656 12.0266C14.2473 11.7866 13.8032 11.6666 13.3235 11.6666C12.746 11.6666 12.2241 11.8355 11.7578 12.1733C11.2914 12.511 10.9694 12.951 10.7917 13.4933L9.52583 13.0666C9.70349 12.5421 9.97888 12.071 10.352 11.6533C10.7251 11.2355 11.1692 10.911 11.6845 10.6799C12.1997 10.4488 12.746 10.3333 13.3235 10.3333C13.3235 9.72881 13.1747 9.17103 12.8771 8.65992C12.5795 8.14881 12.1753 7.74436 11.6645 7.44658C11.1537 7.14881 10.5963 6.99992 9.9922 6.99992Z" fill="#61728E"/>
</svg>
