<svg width="20" height="24" viewBox="0 0 20 24" fill="none" xmlns="http://www.w3.org/2000/svg">
<path d="M11.3247 18C11.1381 18 10.9804 17.9356 10.8516 17.8067C10.7228 17.6778 10.6584 17.52 10.6584 17.3333V12C10.6584 11.8133 10.7228 11.6556 10.8516 11.5267C10.9804 11.3978 11.1381 11.3333 11.3247 11.3333H15.3222C15.5087 11.3333 15.6664 11.3978 15.7952 11.5267C15.924 11.6556 15.9884 11.8133 15.9884 12V17.3333C15.9884 17.52 15.924 17.6778 15.7952 17.8067C15.6664 17.9356 15.5087 18 15.3222 18H11.3247ZM4.66216 12.6667C4.47561 12.6667 4.31793 12.6022 4.18912 12.4733C4.06031 12.3444 3.99591 12.1867 3.99591 12V6.66667C3.99591 6.48 4.06031 6.32222 4.18912 6.19333C4.31793 6.06444 4.47561 6 4.66216 6H8.65966C8.84621 6 9.00389 6.06444 9.1327 6.19333C9.26151 6.32222 9.32591 6.48 9.32591 6.66667V12C9.32591 12.1867 9.26151 12.3444 9.1327 12.4733C9.00389 12.6022 8.84621 12.6667 8.65966 12.6667H4.66216ZM7.99341 11.3333V7.33333H5.32841V11.3333H7.99341ZM4.66216 18C4.47561 18 4.31793 17.9356 4.18912 17.8067C4.06031 17.6778 3.99591 17.52 3.99591 17.3333V14.6667C3.99591 14.48 4.06031 14.3222 4.18912 14.1933C4.31793 14.0644 4.47561 14 4.66216 14H8.65966C8.84621 14 9.00389 14.0644 9.1327 14.1933C9.26151 14.3222 9.32591 14.48 9.32591 14.6667V17.3333C9.32591 17.52 9.26151 17.6778 9.1327 17.8067C9.00389 17.9356 8.84621 18 8.65966 18H4.66216ZM5.32841 16.6667H7.99341V15.3333H5.32841V16.6667ZM11.9909 16.6667H14.6559V12.6667H11.9909V16.6667ZM10.6584 6.66667C10.6584 6.48 10.7228 6.32222 10.8516 6.19333C10.9804 6.06444 11.1381 6 11.3247 6H15.3222C15.5087 6 15.6664 6.06444 15.7952 6.19333C15.924 6.32222 15.9884 6.48 15.9884 6.66667V9.33333C15.9884 9.52 15.924 9.67778 15.7952 9.80667C15.6664 9.93556 15.5087 10 15.3222 10H11.3247C11.1381 10 10.9804 9.93556 10.8516 9.80667C10.7228 9.67778 10.6584 9.52 10.6584 9.33333V6.66667ZM11.9909 7.33333V8.66667H14.6559V7.33333H11.9909Z" fill="#6B7280"/>
</svg>
