<svg width="24" height="24" viewBox="0 0 24 24" fill="none" xmlns="http://www.w3.org/2000/svg">
<path d="M13.3247 18C13.1381 18 12.9804 17.9356 12.8516 17.8067C12.7228 17.6778 12.6584 17.52 12.6584 17.3333V12C12.6584 11.8133 12.7228 11.6556 12.8516 11.5267C12.9804 11.3978 13.1381 11.3333 13.3247 11.3333H17.3222C17.5087 11.3333 17.6664 11.3978 17.7952 11.5267C17.924 11.6556 17.9884 11.8133 17.9884 12V17.3333C17.9884 17.52 17.924 17.6778 17.7952 17.8067C17.6664 17.9356 17.5087 18 17.3222 18H13.3247ZM6.66216 12.6667C6.47561 12.6667 6.31793 12.6022 6.18912 12.4733C6.06031 12.3444 5.99591 12.1867 5.99591 12V6.66667C5.99591 6.48 6.06031 6.32222 6.18912 6.19333C6.31793 6.06444 6.47561 6 6.66216 6H10.6597C10.8462 6 11.0039 6.06444 11.1327 6.19333C11.2615 6.32222 11.3259 6.48 11.3259 6.66667V12C11.3259 12.1867 11.2615 12.3444 11.1327 12.4733C11.0039 12.6022 10.8462 12.6667 10.6597 12.6667H6.66216ZM9.99341 11.3333V7.33333H7.32841V11.3333H9.99341ZM6.66216 18C6.47561 18 6.31793 17.9356 6.18912 17.8067C6.06031 17.6778 5.99591 17.52 5.99591 17.3333V14.6667C5.99591 14.48 6.06031 14.3222 6.18912 14.1933C6.31793 14.0644 6.47561 14 6.66216 14H10.6597C10.8462 14 11.0039 14.0644 11.1327 14.1933C11.2615 14.3222 11.3259 14.48 11.3259 14.6667V17.3333C11.3259 17.52 11.2615 17.6778 11.1327 17.8067C11.0039 17.9356 10.8462 18 10.6597 18H6.66216ZM7.32841 16.6667H9.99341V15.3333H7.32841V16.6667ZM13.9909 16.6667H16.6559V12.6667H13.9909V16.6667ZM12.6584 6.66667C12.6584 6.48 12.7228 6.32222 12.8516 6.19333C12.9804 6.06444 13.1381 6 13.3247 6H17.3222C17.5087 6 17.6664 6.06444 17.7952 6.19333C17.924 6.32222 17.9884 6.48 17.9884 6.66667V9.33333C17.9884 9.52 17.924 9.67778 17.7952 9.80667C17.6664 9.93556 17.5087 10 17.3222 10H13.3247C13.1381 10 12.9804 9.93556 12.8516 9.80667C12.7228 9.67778 12.6584 9.52 12.6584 9.33333V6.66667ZM13.9909 7.33333V8.66667H16.6559V7.33333H13.9909Z" fill="#4B5563"/>
</svg>
