<svg width="20" height="24" viewBox="0 0 20 24" fill="none" xmlns="http://www.w3.org/2000/svg">
<path d="M5.32841 11.9999C5.32841 12.1155 5.40836 12.2533 5.56826 12.4133C5.75481 12.591 6.01687 12.7644 6.35444 12.9333C6.81637 13.1644 7.36269 13.3444 7.99341 13.4733C8.62413 13.6021 9.29038 13.6666 9.99216 13.6666C10.6939 13.6666 11.3602 13.6021 11.9909 13.4733C12.6216 13.3444 13.168 13.1644 13.6299 12.9333C13.9675 12.7644 14.2295 12.591 14.4161 12.4133C14.576 12.2533 14.6559 12.1155 14.6559 11.9999V10.5466C14.0963 10.8933 13.4167 11.1644 12.6172 11.3599C11.791 11.5644 10.916 11.6666 9.99216 11.6666C9.06829 11.6666 8.19329 11.5644 7.36714 11.3599C6.56764 11.1644 5.88806 10.8933 5.32841 10.5466V11.9999ZM14.6559 13.8799C14.0963 14.2266 13.4167 14.4977 12.6172 14.6933C11.791 14.8977 10.916 14.9999 9.99216 14.9999C9.06829 14.9999 8.19329 14.8977 7.36714 14.6933C6.56764 14.4977 5.88806 14.2266 5.32841 13.8799V15.3333C5.32841 15.4488 5.40836 15.5866 5.56826 15.7466C5.75481 15.9244 6.01687 16.0977 6.35444 16.2666C6.81637 16.4977 7.36269 16.6777 7.99341 16.8066C8.62413 16.9355 9.29038 16.9999 9.99216 16.9999C10.6939 16.9999 11.3602 16.9355 11.9909 16.8066C12.6216 16.6777 13.168 16.4977 13.6299 16.2666C13.9675 16.0977 14.2295 15.9244 14.4161 15.7466C14.576 15.5866 14.6559 15.4488 14.6559 15.3333V13.8799ZM3.99591 15.3333V8.66658C3.99591 8.12436 4.26685 7.6177 4.80874 7.14659C5.34174 6.70214 6.06129 6.34659 6.96739 6.07992C7.90014 5.80436 8.90839 5.66658 9.99216 5.66658C11.0759 5.66658 12.0842 5.80436 13.0169 6.07992C13.923 6.34659 14.6426 6.70214 15.1756 7.14659C15.7175 7.6177 15.9884 8.12436 15.9884 8.66658V15.3333C15.9884 15.8755 15.7175 16.3821 15.1756 16.8533C14.6426 17.2977 13.923 17.6533 13.0169 17.9199C12.0842 18.1955 11.0759 18.3333 9.99216 18.3333C8.90839 18.3333 7.90014 18.1955 6.96739 17.9199C6.06129 17.6533 5.34174 17.2977 4.80874 16.8533C4.26685 16.3821 3.99591 15.8755 3.99591 15.3333ZM9.99216 10.3333C10.6939 10.3333 11.3602 10.2688 11.9909 10.1399C12.6216 10.011 13.168 9.83103 13.6299 9.59992C13.9675 9.43103 14.2295 9.2577 14.4161 9.07992C14.576 8.91992 14.6559 8.78214 14.6559 8.66658C14.6559 8.55103 14.576 8.41325 14.4161 8.25325C14.2295 8.07547 13.9675 7.90214 13.6299 7.73325C13.168 7.50214 12.6216 7.32214 11.9909 7.19325C11.3602 7.06436 10.6939 6.99992 9.99216 6.99992C9.29038 6.99992 8.62413 7.06436 7.99341 7.19325C7.36269 7.32214 6.81637 7.50214 6.35444 7.73325C6.01687 7.90214 5.75481 8.07547 5.56826 8.25325C5.40836 8.41325 5.32841 8.55103 5.32841 8.66658C5.32841 8.78214 5.40836 8.91992 5.56826 9.07992C5.75481 9.2577 6.01687 9.43103 6.35444 9.59992C6.81637 9.83103 7.36269 10.011 7.99341 10.1399C8.62413 10.2688 9.29038 10.3333 9.99216 10.3333Z" fill="#61728E"/>
</svg>
