<svg width="48" height="48" viewBox="0 0 48 48" fill="none" xmlns="http://www.w3.org/2000/svg">
<path d="M0 24C0 10.7452 10.7452 0 24 0C37.2548 0 48 10.7452 48 24C48 37.2548 37.2548 48 24 48C10.7452 48 0 37.2548 0 24Z" fill="white" fill-opacity="0.2"/>
<path d="M23.9922 31.5C22.9722 31.5 21.9972 31.305 21.0672 30.915C20.1772 30.535 19.3847 29.9975 18.6897 29.3025C17.9947 28.6075 17.4572 27.815 17.0772 26.925C16.6872 25.995 16.4922 25.02 16.4922 24C16.4922 22.98 16.6872 22.005 17.0772 21.075C17.4572 20.185 17.9947 19.3925 18.6897 18.6975C19.3847 18.0025 20.1772 17.465 21.0672 17.085C21.9972 16.695 22.9722 16.5 23.9922 16.5C25.0122 16.5 25.9872 16.695 26.9172 17.085C27.8072 17.465 28.5997 18.0025 29.2947 18.6975C29.9897 19.3925 30.5272 20.185 30.9072 21.075C31.2972 22.005 31.4922 22.98 31.4922 24C31.4922 25.02 31.2972 25.995 30.9072 26.925C30.5272 27.815 29.9897 28.6075 29.2947 29.3025C28.5997 29.9975 27.8072 30.535 26.9172 30.915C25.9872 31.305 25.0122 31.5 23.9922 31.5ZM23.9922 30C25.0822 30 26.0922 29.725 27.0222 29.175C27.9222 28.645 28.6372 27.93 29.1672 27.03C29.7172 26.1 29.9922 25.09 29.9922 24C29.9922 22.91 29.7172 21.9 29.1672 20.97C28.6372 20.07 27.9222 19.355 27.0222 18.825C26.0922 18.275 25.0822 18 23.9922 18C22.9022 18 21.8922 18.275 20.9622 18.825C20.0622 19.355 19.3472 20.07 18.8172 20.97C18.2672 21.9 17.9922 22.91 17.9922 24C17.9922 25.09 18.2672 26.1 18.8172 27.03C19.3472 27.93 20.0622 28.645 20.9622 29.175C21.8922 29.725 22.9022 30 23.9922 30ZM23.2422 26.25H24.7422V27.75H23.2422V26.25ZM24.7422 25.02V25.5H23.2422V24.375C23.2422 24.165 23.3147 23.9875 23.4597 23.8425C23.6047 23.6975 23.7822 23.625 23.9922 23.625C24.3022 23.625 24.5672 23.515 24.7872 23.295C25.0072 23.075 25.1172 22.81 25.1172 22.5C25.1172 22.19 25.0072 21.925 24.7872 21.705C24.5672 21.485 24.3022 21.375 23.9922 21.375C23.7222 21.375 23.4847 21.46 23.2797 21.63C23.0747 21.8 22.9422 22.015 22.8822 22.275L21.4122 21.99C21.4922 21.59 21.6572 21.23 21.9072 20.91C22.1572 20.59 22.4622 20.3375 22.8222 20.1525C23.1822 19.9675 23.5722 19.875 23.9922 19.875C24.4722 19.875 24.9122 19.9925 25.3122 20.2275C25.7122 20.4625 26.0297 20.78 26.2647 21.18C26.4997 21.58 26.6172 22.02 26.6172 22.5C26.6172 23.09 26.4422 23.615 26.0922 24.075C25.7422 24.535 25.2922 24.85 24.7422 25.02Z" fill="white"/>
</svg>
