<svg width="20" height="24" viewBox="0 0 20 24" fill="none" xmlns="http://www.w3.org/2000/svg">
<path d="M9.99221 18.6667C9.08611 18.6667 8.21999 18.4934 7.39384 18.1467C6.60322 17.809 5.89922 17.3312 5.28182 16.7134C4.66443 16.0956 4.18695 15.3912 3.84939 14.6001C3.50294 13.7734 3.32971 12.9067 3.32971 12.0001C3.32971 11.0934 3.50294 10.2267 3.84939 9.40008C4.18695 8.60897 4.66443 7.90453 5.28182 7.28675C5.89922 6.66897 6.60322 6.19119 7.39384 5.85342C8.21999 5.50675 9.08611 5.33342 9.99221 5.33342C10.8983 5.33342 11.7644 5.50675 12.5906 5.85342C13.3812 6.19119 14.0852 6.66897 14.7026 7.28675C15.32 7.90453 15.7975 8.60897 16.135 9.40008C16.4815 10.2267 16.6547 11.0934 16.6547 12.0001C16.6547 12.9067 16.4815 13.7734 16.135 14.6001C15.7975 15.3912 15.32 16.0956 14.7026 16.7134C14.0852 17.3312 13.3812 17.809 12.5906 18.1467C11.7644 18.4934 10.8983 18.6667 9.99221 18.6667ZM8.47316 17.1067C7.80691 15.7023 7.42937 14.2223 7.34054 12.6667H4.70219C4.79102 13.3601 5.00644 14.009 5.34845 14.6134C5.69046 15.2179 6.13018 15.7356 6.66762 16.1667C7.20507 16.5979 7.80691 16.9112 8.47316 17.1067ZM8.68636 12.6667C8.78408 14.2667 9.21936 15.769 9.99221 17.1734C10.7651 15.769 11.2003 14.2667 11.2981 12.6667H8.68636ZM15.2822 12.6667H12.6439C12.5551 14.2223 12.182 15.7023 11.5246 17.1067C12.182 16.9112 12.7794 16.5979 13.3168 16.1667C13.8542 15.7356 14.294 15.2179 14.636 14.6134C14.978 14.009 15.1934 13.3601 15.2822 12.6667ZM4.70219 11.3334H7.34054C7.42937 9.77786 7.80691 8.29786 8.47316 6.89342C7.80691 7.08897 7.20507 7.4023 6.66762 7.83342C6.13018 8.26453 5.69046 8.7823 5.34845 9.38675C5.00644 9.99119 4.79102 10.6401 4.70219 11.3334ZM8.68636 11.3334H11.2981C11.2003 9.73341 10.7651 8.23119 9.99221 6.82675C9.21936 8.23119 8.78408 9.73341 8.68636 11.3334ZM11.5246 6.89342C12.182 8.29786 12.5551 9.77786 12.6439 11.3334H15.2822C15.1934 10.6401 14.978 9.99119 14.636 9.38675C14.294 8.7823 13.8542 8.26453 13.3168 7.83342C12.7794 7.4023 12.182 7.08897 11.5246 6.89342Z" fill="#61728E"/>
</svg>
