<svg width="20" height="24" viewBox="0 0 20 24" fill="none" xmlns="http://www.w3.org/2000/svg">
<path d="M4.66221 7.33333V16.6667H15.3222V8.66667H9.71239L8.37989 7.33333H4.66221ZM10.272 7.33333H15.9885C16.175 7.33333 16.3327 7.39778 16.4615 7.52667C16.5903 7.65556 16.6547 7.81333 16.6547 8V17.3333C16.6547 17.52 16.5903 17.6778 16.4615 17.8067C16.3327 17.9356 16.175 18 15.9885 18H3.99596C3.80941 18 3.65173 17.9356 3.52292 17.8067C3.39412 17.6778 3.32971 17.52 3.32971 17.3333V6.66667C3.32971 6.48 3.39412 6.32222 3.52292 6.19333C3.65173 6.06444 3.80941 6 3.99596 6H8.93954L10.272 7.33333Z" fill="#6B7280"/>
</svg>
