<svg width="20" height="24" viewBox="0 0 20 24" fill="none" xmlns="http://www.w3.org/2000/svg">
<path d="M14.6559 6.66675H5.32841V17.3334H14.6559V6.66675ZM3.99591 6.00008C3.99591 5.81342 4.06031 5.65564 4.18912 5.52675C4.31793 5.39786 4.47561 5.33342 4.66216 5.33342H15.3222C15.5087 5.33342 15.6664 5.39786 15.7952 5.52675C15.924 5.65564 15.9884 5.81342 15.9884 6.00008V18.0001C15.9884 18.1779 15.924 18.3334 15.7952 18.4667C15.6664 18.6001 15.5087 18.6667 15.3222 18.6667H4.66216C4.47561 18.6667 4.31793 18.6023 4.18912 18.4734C4.06031 18.3445 3.99591 18.1867 3.99591 18.0001V6.00008ZM9.52579 12.7467L12.3507 9.92008L13.2834 10.8667L9.52579 14.6267L6.92741 12.0401L7.87349 11.0934L9.52579 12.7467Z" fill="#6B7280"/>
</svg>
