<svg width="20" height="24" viewBox="0 0 20 24" fill="none" xmlns="http://www.w3.org/2000/svg">
<path d="M10.272 7.33333H15.9885C16.175 7.33333 16.3327 7.39778 16.4615 7.52667C16.5903 7.65556 16.6547 7.81333 16.6547 8V17.3333C16.6547 17.52 16.5903 17.6778 16.4615 17.8067C16.3327 17.9356 16.175 18 15.9885 18H3.99596C3.80941 18 3.65173 17.9356 3.52292 17.8067C3.39412 17.6778 3.32971 17.52 3.32971 17.3333V6.66667C3.32971 6.48 3.39412 6.32222 3.52292 6.19333C3.65173 6.06444 3.80941 6 3.99596 6H8.93954L10.272 7.33333ZM4.66221 7.33333V16.6667H15.3222V8.66667H9.71239L8.37989 7.33333H4.66221ZM7.72696 13.2C7.68255 13.0311 7.66034 12.8533 7.66034 12.6667C7.66034 12.48 7.68255 12.2978 7.72696 12.12L7.06071 11.7467L7.72696 10.5867L8.39321 10.9733C8.65971 10.7156 8.97063 10.5333 9.32596 10.4267V9.66667H10.6585V10.4267C11.0138 10.5333 11.3247 10.7156 11.5912 10.9733L12.2575 10.5867L12.9237 11.7467L12.2575 12.12C12.3019 12.2978 12.3241 12.48 12.3241 12.6667C12.3241 12.8533 12.3019 13.0311 12.2575 13.2L12.9237 13.5867L12.2575 14.7467L11.5912 14.36C11.3247 14.6178 11.0138 14.8 10.6585 14.9067V15.6667H9.32596V14.9067C8.97063 14.8 8.65971 14.6178 8.39321 14.36L7.72696 14.7467L7.06071 13.5867L7.72696 13.2ZM9.99221 13.6667C10.2676 13.6667 10.503 13.5689 10.6984 13.3733C10.8939 13.1778 10.9916 12.9422 10.9916 12.6667C10.9916 12.3911 10.8939 12.1556 10.6984 11.96C10.503 11.7644 10.2676 11.6667 9.99221 11.6667C9.71683 11.6667 9.48142 11.7644 9.28599 11.96C9.09055 12.1556 8.99284 12.3911 8.99284 12.6667C8.99284 12.9422 9.09055 13.1778 9.28599 13.3733C9.48142 13.5689 9.71683 13.6667 9.99221 13.6667Z" fill="#6B7280"/>
</svg>
